<svg fill="none" viewBox="0 0 28 28" xmlns="http://www.w3.org/2000/svg"><path d="M17.63 2.008a.806.806 0 0 0-.776.828l.039 1.386c.013.442.38.787.822.772l.227-.008a.806.806 0 0 0 .777-.827l-.04-1.387A.794.794 0 0 0 17.858 2l-.227.008ZM26.183 5.683a.757.757 0 0 0-1.09-.176l-1.029.78a.845.845 0 0 0-.184 1.141l.162.237a.757.757 0 0 0 1.091.176l1.029-.78a.845.845 0 0 0 .184-1.141l-.163-.237ZM24.599 15.88a.841.841 0 0 1-.318-1.11l.138-.261a.76.76 0 0 1 1.065-.305l1.104.644c.382.222.524.72.317 1.11l-.138.26a.76.76 0 0 1-1.064.305l-1.104-.643ZM10.04 7.203c-.187.4-.02.888.373 1.09l1.13.58a.764.764 0 0 0 1.049-.359l.127-.271a.838.838 0 0 0-.373-1.091l-1.13-.58a.764.764 0 0 0-1.05.359l-.126.272Z" fill="#b3b3b3" class="fill-000000"></path><path clip-rule="evenodd" d="M4.659 16.086c.89-3.529 3.853-6.218 7.492-6.218.233 0 .464.011.692.033a5.816 5.816 0 0 1 5.482-3.846c3.212 0 5.816 2.587 5.816 5.777 0 1.64-.687 3.12-1.791 4.17a4.87 4.87 0 0 1 1.416 2.672c1.387.188 2.338 1.466 2.338 2.84 0 1.489-1.116 2.864-2.692 2.864h-.564a.993.993 0 0 1-.102-.005l-17.73.005a3.476 3.476 0 0 1-.174.005h-.586c-.073 0-.147-.008-.218-.024C2.192 23.946 1 22.047 1 20.189c0-2.121 1.542-4.012 3.659-4.103Zm10.087-5.737c2.015.776 3.626 2.428 4.486 4.493a4.13 4.13 0 0 1 1.327.139 3.839 3.839 0 0 0 1.643-3.149c0-2.127-1.735-3.851-3.877-3.851a3.879 3.879 0 0 0-3.58 2.368Zm-2.595 1.519c-2.803 0-5.249 2.28-5.696 5.436a1 1 0 0 1-1.24.828 1.58 1.58 0 0 0-.395-.05c-.916 0-1.82.85-1.82 2.107 0 1.1.685 1.98 1.383 2.194h.459c.03 0 .058-.001.087-.003a.987.987 0 0 1 .06-.002l17.845-.005c.034 0 .068.002.102.005h.476c.293 0 .692-.293.692-.864 0-.57-.399-.864-.692-.864a.549.549 0 0 0-.204.04 1 1 0 0 1-1.367-.978c.003-.05.004-.1.004-.15 0-1.595-1.149-2.72-2.372-2.728l-.009.006a2.67 2.67 0 0 1-.377.23 1 1 0 0 1-1.417-.628c-.737-2.707-2.977-4.574-5.519-4.574Z" fill="#b3b3b3" fill-rule="evenodd" class="fill-000000"></path></svg>