<svg fill="none" viewBox="0 0 28 28" xmlns="http://www.w3.org/2000/svg"><path clip-rule="evenodd" d="M12.545 2C8.765 2 5.699 4.829 4.79 8.525 2.593 8.605 1 10.58 1 12.784c0 1.925 1.223 3.898 3.123 4.327.072.017.146.025.22.025h.61c.06 0 .12-.002.18-.005l18.419-.005c.035.004.07.005.105.005h.585c1.622 0 2.758-1.427 2.758-2.956 0-1.421-.982-2.755-2.421-2.936-.378-2.223-2.148-4.027-4.44-4.027a2.95 2.95 0 0 0-.262.01C18.64 4.19 15.864 2 12.545 2ZM6.589 9.747C7.06 6.407 9.62 4 12.545 4c2.653 0 4.997 1.97 5.77 4.835a1 1 0 0 0 1.42.63c.167-.086.29-.167.388-.24l.017-.013c1.29.002 2.513 1.202 2.513 2.914 0 .054-.001.107-.003.16a1 1 0 0 0 1.37.975.596.596 0 0 1 .222-.043c.32 0 .758.325.758.957 0 .632-.437.957-.758.957h-.495a.998.998 0 0 0-.105-.006l-18.538.006-.06.001a1.55 1.55 0 0 1-.092.003h-.48C3.728 14.908 3 13.965 3 12.784c0-1.353.962-2.261 1.93-2.261.144 0 .283.018.417.053a1 1 0 0 0 1.242-.829Z" fill="#b3b3b3" fill-rule="evenodd" class="fill-000000"></path><path d="M8.932 18.87a.794.794 0 0 0-1.09.291l-2.564 4.472a.806.806 0 0 0 .294 1.096l.28.163A.794.794 0 0 0 6.94 24.6l2.564-4.472a.806.806 0 0 0-.294-1.096l-.28-.163ZM13.344 19.161a.794.794 0 0 1 1.09-.292l.28.163a.806.806 0 0 1 .293 1.096L12.443 24.6a.794.794 0 0 1-1.09.292l-.28-.163a.806.806 0 0 1-.293-1.096l2.564-4.472ZM19.938 18.87a.794.794 0 0 0-1.09.291l-2.564 4.472a.806.806 0 0 0 .294 1.096l.28.163a.794.794 0 0 0 1.089-.292l2.564-4.472a.806.806 0 0 0-.294-1.096l-.28-.163Z" fill="#b3b3b3" class="fill-000000"></path></svg>