<svg width="21" height="20" viewBox="0 0 21 20" fill="none" xmlns="http://www.w3.org/2000/svg">
<path fill-rule="evenodd" clip-rule="evenodd" d="M7.94365 12.6497C5.16721 12.6497 2.92579 10.4088 2.92579 7.63189C2.92579 4.85536 5.16721 2.6142 7.94365 2.6142C10.721 2.6142 12.9625 4.85536 12.9625 7.63189C12.9625 10.4088 10.721 12.6497 7.94365 12.6497ZM14.6344 12.6497H13.7534L13.4419 12.3488C14.5343 11.0776 15.1927 9.42731 15.1927 7.63189C15.1927 3.62875 11.947 0.384033 7.94365 0.384033C3.94023 0.384033 0.695435 3.62875 0.695435 7.63189C0.695435 11.6351 3.94023 14.8801 7.94365 14.8801C9.73894 14.8801 11.3897 14.2221 12.6611 13.1294L12.9625 13.4415V14.3224L18.5376 19.8866L20.1994 18.2252L14.6344 12.6497Z" fill="#999999"/>
</svg>
