<svg width="19" height="19" viewBox="0 0 19 19" fill="none" xmlns="http://www.w3.org/2000/svg">
<path fill-rule="evenodd" clip-rule="evenodd" d="M9.24808 10.4091C6.27129 10.4091 0.327026 11.9033 0.327026 14.8695V18.2148H18.1691V14.8695C18.1691 11.9033 12.2258 10.4091 9.24808 10.4091ZM9.24808 0.373657C6.78409 0.373657 4.78755 2.36935 4.78755 4.83383C4.78755 7.29805 6.78409 9.29412 9.24808 9.29412C11.713 9.29412 13.7086 7.29805 13.7086 4.83383C13.7086 2.36935 11.713 0.373657 9.24808 0.373657ZM9.24808 12.5277C12.5606 12.5277 16.051 14.1559 16.051 14.8695V16.0963H2.44601V14.8695C2.44601 14.1559 5.93655 12.5277 9.24808 12.5277ZM9.24808 2.49216C10.5417 2.49216 11.5906 3.54037 11.5906 4.83383C11.5906 6.12715 10.5417 7.17562 9.24808 7.17562C7.95444 7.17562 6.90654 6.12715 6.90654 4.83383C6.90654 3.54037 7.95444 2.49216 9.24808 2.49216Z" fill="#9C9C9C"/>
</svg>
